<svg xmlns="http://www.w3.org/2000/svg" fill="none" viewBox="0 0 48 48" id="Bookmark-Book--Streamline-Core.svg"
     height="48" width="48">
    <desc>Bookmark Book Streamline Icon: https://streamlinehq.com</desc>
    <g id="bookmark-book--bookmark-favorite-book-tag">
        <path id="vector" fill="#ffffff"
              d="M10.285714285714285 46.285714285714285h29.142857142857142v-10.285714285714285H10.285714285714285c-1.3639542857142857 0 -2.6720914285714286 0.5417142857142857 -3.636548571428571 1.5061714285714285C5.684708571428571 38.47062857142857 5.142857142857142 39.778971428571424 5.142857142857142 41.14285714285714c0 1.3638857142857141 0.5418514285714285 2.672228571428571 1.5063085714285713 3.636685714285714S8.92176 46.285714285714285 10.285714285714285 46.285714285714285Z"
              stroke-width="1"></path>
        <path id="vector_2" fill="#d7e0ff"
              d="M6.649165714285714 37.50617142857143C5.684708571428571 38.47062857142857 5.142857142857142 39.778971428571424 5.142857142857142 41.14285714285714V6.72c0.03576 -1.3400571428571426 0.5933142857142857 -2.613188571428571 1.5539657142857142 -3.548211428571428C7.65744 2.2367794285714284 8.945177142857142 1.7138091428571427 10.285714285714285 1.7142857142857142h29.142857142857142c0.9092571428571428 0 1.7814857142857141 0.361224 2.424342857142857 1.0042045714285714 0.6428571428571428 0.642984 1.0042285714285712 1.5150411428571426 1.0042285714285712 2.424366857142857v27.428571428571427c0 0.9093257142857143 -0.3613714285714285 1.7814857142857141 -1.0042285714285712 2.424342857142857s-1.5150857142857141 1.0042285714285712 -2.424342857142857 1.0042285714285712H10.285714285714285c-1.3639542857142857 0 -2.6720914285714286 0.5417142857142857 -3.636548571428571 1.5061714285714285Z"
              stroke-width="1"></path>
        <path id="vector_3" stroke="#4147d5" stroke-linecap="round" stroke-linejoin="round"
              d="M42.857142857142854 46.285714285714285H10.285714285714285c-1.3639542857142857 0 -2.6720914285714286 -0.5417142857142857 -3.636548571428571 -1.5061714285714285C5.684708571428571 43.815085714285715 5.142857142857142 42.506742857142854 5.142857142857142 41.14285714285714c0 -1.3638857142857141 0.5418514285714285 -2.672228571428571 1.5063085714285713 -3.636685714285714S8.92176 36 10.285714285714285 36h29.142857142857142c0.9092571428571428 0 1.7814857142857141 -0.3613714285714285 2.424342857142857 -1.0042285714285712S42.857142857142854 33.48075428571428 42.857142857142854 32.57142857142857v-27.428571428571427c0 -0.9093257142857143 -0.3613714285714285 -1.781382857142857 -1.0042285714285712 -2.424366857142857C41.210057142857146 2.0755097142857144 40.33782857142857 1.7142857142857142 39.42857142857142 1.7142857142857142H10.285714285714285c-1.3405371428571429 -0.0004765714285714285 -2.628274285714286 0.5224937142857142 -3.588891428571428 1.457502857142857C5.736171428571428 4.106811428571429 5.178617142857142 5.379942857142857 5.142857142857142 6.72v34.285714285714285"
              stroke-width="1"></path>
        <path id="vector_4" stroke="#4147d5" stroke-linecap="round" stroke-linejoin="round"
              d="M39.42857142857142 36v10.285714285714285" stroke-width="1"></path>
        <path id="Vector 4008" fill="#ffffff"
              d="M18.857142857142858 1.7142857142857142v20.57142857142857l6.857142857142857 -6.367337142857142L32.57142857142857 22.285714285714285v-20.57142857142857h-13.714285714285714Z"
              stroke-width="1"></path>
        <path id="Vector 4007" stroke="#4147d5" stroke-linecap="round" stroke-linejoin="round"
              d="M18.857142857142858 1.7142857142857142v20.57142857142857l6.857142857142857 -6.367337142857142L32.57142857142857 22.285714285714285v-20.57142857142857h-13.714285714285714Z"
              stroke-width="1"></path>
    </g>
</svg>