<svg xmlns="http://www.w3.org/2000/svg" fill="none" viewBox="0 0 48 48" id="Chat-Bubble-Text-Square--Streamline-Core.svg" height="48" width="48"><desc>Chat Bubble Text Square Streamline Icon: https://streamlinehq.com</desc><g id="chat-bubble-text-square--messages-message-bubble-text-square-chat"><path id="Vector" fill="#d7e0ff" d="m15.428571428571427 42.857142857142854 -13.714285714285714 3.4285714285714284 3.4285714285714284 -10.285714285714285v-30.857142857142854c0 -0.9093257142857143 0.3612342857142857 -1.781382857142857 1.0041942857142856 -2.424366857142857C6.790045714285713 2.0755097142857144 7.662102857142857 1.7142857142857142 8.571428571428571 1.7142857142857142h34.285714285714285c0.9092571428571428 0 1.7814857142857141 0.361224 2.424342857142857 1.0042045714285714 0.6428571428571428 0.642984 1.0042285714285712 1.5150411428571426 1.0042285714285712 2.424366857142857v34.285714285714285c0 0.9092571428571428 -0.3613714285714285 1.7814857142857141 -1.0042285714285712 2.424342857142857s-1.5150857142857141 1.0042285714285712 -2.424342857142857 1.0042285714285712h-27.428571428571427Z" stroke-width="1"></path><path id="Vector_2" stroke="#4147d5" stroke-linecap="round" stroke-linejoin="round" d="m15.428571428571427 42.857142857142854 -13.714285714285714 3.4285714285714284 3.4285714285714284 -10.285714285714285v-30.857142857142854c0 -0.9093257142857143 0.3612342857142857 -1.781382857142857 1.0041942857142856 -2.424366857142857C6.790045714285713 2.0755097142857144 7.662102857142857 1.7142857142857142 8.571428571428571 1.7142857142857142h34.285714285714285c0.9092571428571428 0 1.7814857142857141 0.361224 2.424342857142857 1.0042045714285714 0.6428571428571428 0.642984 1.0042285714285712 1.5150411428571426 1.0042285714285712 2.424366857142857v34.285714285714285c0 0.9092571428571428 -0.3613714285714285 1.7814857142857141 -1.0042285714285712 2.424342857142857s-1.5150857142857141 1.0042285714285712 -2.424342857142857 1.0042285714285712h-27.428571428571427Z" stroke-width="1"></path><path id="Vector_3" stroke="#4147d5" stroke-linecap="round" stroke-linejoin="round" d="M15.428571428571427 17.142857142857142h20.57142857142857" stroke-width="1"></path><path id="Vector_4" stroke="#4147d5" stroke-linecap="round" stroke-linejoin="round" d="M15.428571428571427 27.428571428571427h13.714285714285714" stroke-width="1"></path></g></svg>